<svg xmlns="http://www.w3.org/2000/svg" viewBox="0 0 24 24" width="32" height="32">
  <rect width="24" height="24" fill="#000000"/>
  <g fill="none" stroke="#7dd3fc" stroke-width="1.4" stroke-linecap="round" stroke-linejoin="round">
    <path d="M12 2.6 C 7 2.6 4.2 6 4.2 9.8 C 4.2 13.6 6.4 17 8.8 19.2 C 9.8 20.1 10.8 21.4 12 21.4 C 13.2 21.4 14.2 20.1 15.2 19.2 C 17.6 17 19.8 13.6 19.8 9.8 C 19.8 6 17 2.6 12 2.6 Z"/>
    <path d="M11 17 L 13 17"/>
  </g>
  <path d="M7.4 9.5 C 7.4 11.5 8.4 13 9.6 13 C 10.6 13 11.2 12 10.7 10.6 C 10.2 9.2 9 8.4 8.2 8.6 C 7.7 8.7 7.4 9 7.4 9.5 Z" fill="#7dd3fc"/>
  <path d="M16.6 9.5 C 16.6 11.5 15.6 13 14.4 13 C 13.4 13 12.8 12 13.3 10.6 C 13.8 9.2 15 8.4 15.8 8.6 C 16.3 8.7 16.6 9 16.6 9.5 Z" fill="#7dd3fc"/>
</svg>
